<?xml version="1.0" standalone="no"?>
<!DOCTYPE svg PUBLIC "-//W3C//DTD SVG 20010904//EN"
 "http://www.w3.org/TR/2001/REC-SVG-20010904/DTD/svg10.dtd">
<svg version="1.0" xmlns="http://www.w3.org/2000/svg"
 width="160.000000pt" height="315.000000pt" viewBox="0 0 160.000000 315.000000"
 preserveAspectRatio="xMidYMid meet">

<g transform="translate(0.000000,315.000000) scale(0.100000,-0.100000)"
fill="#000000" stroke="none">
<path d="M824 3051 c-110 -79 -178 -233 -193 -436 l-6 -90 -278 -3 c-216 -2
-278 -5 -274 -15 3 -9 72 -13 280 -15 l277 -2 0 -48 c0 -49 23 -192 40 -252 9
-31 7 -37 -22 -67 l-32 -33 -269 -2 c-204 -2 -271 -6 -274 -15 -4 -10 54 -13
254 -15 l258 -3 -66 -70 c-84 -88 -177 -215 -208 -283 l-24 -52 -109 0 c-89 0
-108 -3 -108 -15 0 -12 18 -15 101 -15 92 0 101 -2 94 -17 -35 -86 -48 -222
-32 -336 l8 -57 -86 0 c-65 0 -86 -3 -83 -12 3 -9 34 -14 94 -16 l90 -3 27
-58 c35 -77 105 -169 168 -221 47 -40 167 -107 199 -112 8 -2 -117 -5 -279 -8
-221 -4 -295 -8 -298 -17 -4 -10 91 -13 439 -15 l443 -3 28 -110 c67 -269 40
-406 -97 -478 -62 -32 -178 -31 -225 2 -37 27 -34 31 33 46 63 14 116 105 102
178 -8 42 -41 93 -79 121 -42 31 -122 29 -170 -4 -109 -73 -116 -260 -14 -346
64 -54 134 -78 227 -79 73 0 94 4 145 28 74 35 109 67 143 132 40 79 41 167 3
351 -17 83 -31 153 -31 157 0 4 115 7 256 7 200 0 255 3 252 13 -4 9 -67 13
-261 15 -285 3 -297 6 -201 56 109 57 183 159 207 285 l11 60 120 3 c85 2 121
7 124 16 3 9 -25 12 -117 12 -89 0 -123 3 -125 12 -2 7 -9 42 -15 77 -14 71
-55 160 -98 211 -15 19 -54 51 -87 72 l-59 38 251 0 c216 0 252 2 252 15 0 13
-48 15 -347 17 l-348 3 -27 130 -27 130 33 35 c18 19 45 52 61 73 l27 37 315
0 c247 0 314 3 311 13 -4 9 -75 13 -301 15 -163 1 -297 5 -297 7 0 3 13 31 29
63 48 95 90 234 91 299 l0 33 237 2 c178 2 237 6 241 16 3 9 -48 12 -232 12
l-236 0 0 68 c-1 179 -62 372 -148 465 -32 34 -40 34 -88 -2z m111 -241 c53
-20 70 -137 35 -252 l-11 -38 -124 0 c-69 0 -125 3 -125 6 0 21 37 128 60 174
30 60 61 93 100 109 33 13 34 13 65 1z m5 -328 c0 -37 -182 -282 -210 -282 -8
0 -24 62 -35 137 -4 23 -3 67 0 97 l7 56 119 0 c66 0 119 -3 119 -8z m-184
-728 l20 -104 -134 0 -134 0 37 43 c51 59 179 177 185 171 3 -3 14 -52 26
-110z m24 -139 c0 -2 -17 -13 -38 -24 -101 -52 -182 -180 -192 -306 l-5 -70
-96 -3 c-113 -3 -112 -4 -98 95 15 107 40 172 102 265 l32 48 148 0 c81 0 147
-2 147 -5z m229 -219 c59 -31 116 -99 135 -163 7 -23 7 -23 -107 -23 l-114 0
-22 100 c-11 56 -21 104 -21 109 0 12 93 -5 129 -23z m-165 -76 c9 -47 16 -91
16 -97 0 -10 -28 -13 -105 -13 -104 0 -105 0 -105 24 0 37 60 118 114 154 27
18 52 29 56 25 4 -4 15 -46 24 -93z m-271 -183 c10 -24 37 -63 60 -87 41 -42
133 -94 149 -84 16 10 7 23 -35 47 -45 27 -97 105 -97 146 0 20 5 21 110 21
105 0 110 -1 115 -22 3 -13 18 -88 34 -168 26 -132 27 -146 12 -155 -9 -5 -68
-10 -131 -10 -112 0 -117 1 -193 37 -51 24 -95 55 -127 88 -47 48 -102 145
-114 203 l-6 27 102 0 103 0 18 -43z m587 -12 c0 -63 -30 -152 -66 -195 -25
-29 -92 -76 -99 -68 -3 3 -65 299 -65 312 0 3 52 6 115 6 l115 0 0 -55z"/>
</g>
</svg>
